<?xml version="1.0" standalone="no"?>
<!DOCTYPE svg PUBLIC "-//W3C//DTD SVG 20010904//EN"
 "http://www.w3.org/TR/2001/REC-SVG-20010904/DTD/svg10.dtd">
<svg version="1.0" xmlns="http://www.w3.org/2000/svg"
 width="260.000000pt" height="260.000000pt" viewBox="0 0 260.000000 260.000000"
 preserveAspectRatio="xMidYMid meet">
<metadata>
Created by potrace 1.11, written by Peter Selinger 2001-2013
</metadata>
<g transform="translate(0.000000,260.000000) scale(0.100000,-0.100000)"
fill="#000000" stroke="none">
<path d="M0 1300 l0 -1300 1300 0 1300 0 0 1300 0 1300 -1300 0 -1300 0 0
-1300z m1510 1110 c285 -76 532 -263 680 -516 52 -90 51 -101 -3 -28 -115 155
-284 266 -476 315 -72 18 -104 20 -220 16 -117 -4 -145 -8 -200 -30 -139 -57
-205 -116 -265 -236 -42 -83 -76 -118 -185 -195 -45 -32 -86 -67 -93 -79 -20
-37 -12 -108 22 -192 101 -252 103 -295 13 -295 -32 0 -45 -5 -53 -20 -16 -30
7 -72 47 -83 25 -8 35 -18 48 -56 9 -25 19 -62 21 -81 10 -71 16 -84 77 -148
99 -103 222 -178 367 -224 65 -20 95 -23 230 -23 135 0 165 3 230 24 226 71
406 220 506 418 42 84 44 68 4 -35 -113 -294 -367 -533 -675 -639 -214 -73
-481 -71 -705 5 -158 54 -271 124 -400 248 -149 144 -254 322 -307 519 -24 90
-26 118 -26 270 0 153 2 180 27 270 110 408 431 717 836 804 132 29 375 24
500 -9z m783 -1765 c-1 -11 -4 -65 -9 -120 l-8 -100 -13 90 c-16 116 -17 125
-7 215 l8 75 14 -70 c8 -38 15 -79 15 -90z m131 -179 c13 -21 13 -29 0 -71 -8
-27 -14 -86 -14 -132 0 -45 -4 -83 -9 -83 -4 0 -11 28 -15 63 -3 35 -14 92
-24 127 -14 54 -15 71 -6 100 7 19 16 64 20 100 l7 65 13 -73 c7 -40 19 -83
28 -96z"/>
</g>
</svg>
